<svg width="167" height="64" viewBox="0 0 167 64" fill="none" xmlns="http://www.w3.org/2000/svg">
<path fill-rule="evenodd" clip-rule="evenodd" d="M22.7547 7.26961L32.9158 0L57.907 17.8471L57.8831 17.8641V17.8642L57.9071 17.8471V42.8154L57.9074 42.8156L32.939 60.6502L32.9388 60.6501L32.9387 60.6502V60.65L32.9385 60.6499V60.6502L7.97008 42.8155V42.7985L7.94629 42.8155V17.8471L22.7547 7.26961Z" fill="#232D4B"/>
<path d="M32.9392 24.9775L7.9707 42.8121L32.9392 60.6468L57.9076 42.8121L32.9392 24.9775Z" fill="#00AA9B" fill-opacity="0.5"/>
<g style="mix-blend-mode:plus-darker">
<path d="M57.8833 17.8437V42.8122L32.9149 24.9776V0.00909424L57.8833 17.8437Z" fill="#232D4B" fill-opacity="0.1"/>
</g>
<path d="M7.94629 17.8437V42.8122L32.9147 24.9776V0.00909424L7.94629 17.8437Z" fill="#232D4B" fill-opacity="0.5"/>
<path d="M51.6577 22.5494C51.8945 22.712 51.8938 23.0596 51.6584 23.2242C47.3686 26.223 44.7092 26.7729 40.3947 24.012C40.151 23.8561 40.1421 23.5051 40.3756 23.3343C44.624 20.2276 47.2841 19.5464 51.6577 22.5494Z" fill="#018AC0"/>
<path d="M14.8903 35.9386C15.2421 33.6049 16.8596 32.2049 18.1239 31.2174L18.3591 33.785C17.3426 35.1925 14.5849 37.9644 14.8903 35.9386Z" fill="#B3D9E3"/>
<path d="M27.3634 41.1257L17.5874 34.1866C16.6026 33.5663 15.1157 34.5551 14.9297 35.704C14.5581 37.9995 14.463 39.7276 14.5746 42.5955C14.6038 43.3455 15.412 45.0874 16.0502 45.4824L25.2525 51.302C25.9183 51.7141 27.0915 52.2437 27.1383 51.462L27.3634 41.1257Z" fill="#52B9D6"/>
<path d="M30.5657 50.4424C29.5693 51.2037 28.4751 51.9719 26.9146 52.0616C25.354 52.1514 23.8837 51.5956 23.4756 51.3099C23.4393 50.6788 25.3776 49.795 26.9382 49.7053C28.4987 49.6155 30.5294 49.8112 30.5657 50.4424Z" fill="#ACDAE5"/>
<path d="M27.3625 41.1256L41.4061 23.168L41.8935 26.2551C43.2605 34.913 39.7173 43.6154 32.6913 48.856L29.837 50.9851C28.6905 51.8402 27.0634 50.9929 27.1068 49.5633L27.3625 41.1256Z" fill="#018AC0"/>
<path d="M17.1598 32.0532C23.2672 26.3144 31.6055 25.6601 39.5953 23.1307C40.0924 22.9733 40.5696 22.7596 41.0343 22.4744L41.5004 23.1473V23.1473C37.6822 27.5875 39.7528 32.8021 34.9262 36.1183L27.4566 41.2505L17.8925 34.4211C17.0986 33.9298 16.2416 33.1243 17.1598 32.0532V32.0532Z" fill="#68C6DD"/>
<path d="M29.585 39.9078C29.0849 40.2155 27.2474 42.4005 27.2876 43.9565C27.1489 42.3449 27.0527 41.2407 25.8605 40.0982C26.2728 40.4174 26.8317 40.6487 27.4112 40.6627C28.5715 40.6905 29.0475 40.2161 29.585 39.9078Z" fill="#27ABCB"/>
<ellipse cx="30.2384" cy="44.3227" rx="1.24777" ry="0.926766" transform="rotate(-23.973 30.2384 44.3227)" fill="white"/>
<ellipse cx="30.5788" cy="44.0033" rx="0.838115" ry="0.693573" transform="rotate(3.43283 30.5788 44.0033)" fill="black"/>
<ellipse cx="28.5987" cy="33.1815" rx="0.422109" ry="0.332211" transform="rotate(28.6134 28.5987 33.1815)" fill="#018AC0"/>
<path d="M51.6529 22.4994C51.8884 22.6637 51.8875 23.0114 51.651 23.1743C47.365 26.1272 44.7519 26.0336 40.4405 23.2257C40.1981 23.0679 40.1895 22.7168 40.4241 22.5476C44.6687 19.4873 47.2823 19.4514 51.6529 22.4994Z" fill="#75CADF"/>
<path d="M42.8671 14.2843C42.7404 14.0755 42.4607 14.0219 42.2663 14.1698C38.4796 17.0485 38.176 19.1697 40.4662 23.2519C40.5868 23.4668 40.8676 23.5284 41.067 23.3837C44.9612 20.5599 45.4032 18.4651 42.8671 14.2843Z" fill="#75CADF"/>
<path d="M27.1917 49.7284C21.6932 48.3411 18.8425 46.3384 14.5596 41.9364C14.5596 42.3647 14.5803 42.7674 14.6022 43.1623C14.6673 44.3416 15.2206 45.4753 16.1844 46.1581L23.3303 51.2206C24.7806 52.248 26.8092 51.4641 27.1917 49.7284Z" fill="#CAEAF2"/>
<path fill-rule="evenodd" clip-rule="evenodd" d="M26.0906 49.8129C22.1309 48.6957 19.9533 47.895 14.5888 42.8174C14.5725 42.575 14.5363 42.1644 14.5508 41.8388C19.5957 46.7135 22.2369 48.1214 26.3054 49.2726C26.5676 49.3769 27.1169 49.1718 27.1169 49.1718C27.2453 49.0948 27.6592 48.9296 27.7964 48.8483C28.26 48.5736 28.6658 48.3708 29.1375 48.1235C29.5341 47.9156 29.6479 47.8021 29.936 47.6558V47.6558C30.085 47.5458 30.1484 47.6054 30.0235 47.7422V47.7422C29.7846 48.0038 29.6932 48.1249 29.3977 48.3245C28.9406 48.6333 28.5216 48.9425 28.0401 49.2278C27.9056 49.3076 27.2742 49.7035 27.1517 49.777C27.1517 49.777 26.5291 49.9873 26.0906 49.8129Z" fill="#291717"/>
<ellipse cx="30.8297" cy="43.6998" rx="0.324896" ry="0.339371" transform="rotate(-3.29237 30.8297 43.6998)" fill="white"/>
<path d="M24.2207 30.0567L24.2207 25.9242L32.4857 31.8278L32.4857 35.9602L24.2207 30.0567Z" fill="#148178"/>
<path d="M24.6523 30.3588L24.6523 26.2255L25.2711 26.6678L25.2711 30.8011L24.6523 30.3588Z" fill="#0B5B54"/>
<path d="M25.7832 31.1672L25.7832 27.0339L26.402 27.4762L26.402 31.6095L25.7832 31.1672Z" fill="#0B5B54"/>
<path d="M26.9136 31.9752L26.9136 27.8419L27.5324 28.2842L27.5324 32.4175L26.9136 31.9752Z" fill="#0B5B54"/>
<path d="M28.0435 32.7834L28.0435 28.6501L28.6623 29.0924L28.6623 33.2257L28.0435 32.7834Z" fill="#0B5B54"/>
<path d="M29.1743 33.5916L29.1743 29.4583L29.7931 29.9006L29.7931 34.0339L29.1743 33.5916Z" fill="#0B5B54"/>
<path d="M30.3042 34.3999L30.3042 30.2665L30.923 30.7088L30.923 34.8422L30.3042 34.3999Z" fill="#0B5B54"/>
<path d="M31.4355 35.208L31.4355 31.0746L32.0543 31.5169L32.0543 35.6503L31.4355 35.208Z" fill="#0B5B54"/>
<path d="M36.6182 28.8759L36.6182 33.0084L32.4857 35.9602L32.4857 31.8277L36.6182 28.8759Z" fill="#0B5B54"/>
<path d="M24.2207 25.9242L28.3532 22.9724L36.6182 28.876L32.4857 31.8278L24.2207 25.9242Z" fill="#01A999"/>
<path d="M24.6523 30.3588L24.6523 26.2255L25.2711 26.6678L25.2711 30.8011L24.6523 30.3588Z" fill="#0B5B54"/>
<path d="M31.1028 24.9442L26.9199 27.8663L28.6142 29.0739L32.727 26.1026L31.1028 24.9442Z" fill="#148178"/>
<path d="M33.7666 26.8526L29.6787 29.8358L31.373 31.0433L35.4318 28.0305L33.7666 26.8526Z" fill="#148178"/>
<path d="M28.3456 22.9724L24.1929 25.9251L25.8872 27.1326L30.0025 24.1478L28.3456 22.9724Z" fill="#148178"/>
<path d="M26.9189 31.984L26.9189 27.8506L28.6163 29.0703L28.6163 33.2037L26.9189 31.984Z" fill="#0B5B54"/>
<path d="M29.6782 33.9534L29.6782 29.82L31.3756 31.0397L31.3756 35.1731L29.6782 33.9534Z" fill="#0B5B54"/>
<path d="M24.1924 30.0427L24.1924 25.9093L25.8898 27.129L25.8898 31.2624L24.1924 30.0427Z" fill="#0B5B54"/>
<path d="M18.9961 33.7824L18.9961 29.6499L27.2611 35.5534L27.2611 39.6859L18.9961 33.7824Z" fill="#F04641"/>
<path d="M31.394 32.6017L31.394 36.7342L27.2616 39.686L27.2616 35.5535L31.394 32.6017Z" fill="#CC3B37"/>
<path d="M18.9961 29.6499L23.1286 26.6981L31.3936 32.6016L27.2611 35.5534L18.9961 29.6499Z" fill="#F2625E"/>
<path d="M25.906 28.6796L21.7231 31.6018L23.4174 32.8093L27.5303 29.8381L25.906 28.6796Z" fill="#F04641"/>
<path d="M28.5708 30.588L24.4829 33.5712L26.1772 34.7788L30.236 31.766L28.5708 30.588Z" fill="#F04641"/>
<path d="M23.1503 26.7078L18.9976 29.6604L20.6919 30.8679L24.8072 27.8832L23.1503 26.7078Z" fill="#F04641"/>
<path d="M21.7231 35.7194L21.7231 31.5861L23.4205 32.8058L23.4205 36.9391L21.7231 35.7194Z" fill="#CC3B37"/>
<path d="M24.4819 37.6889L24.4819 33.5555L26.1793 34.7752L26.1793 38.9085L24.4819 37.6889Z" fill="#CC3B37"/>
<path d="M18.9961 33.7781L18.9961 29.6447L20.6935 30.8644L20.6935 34.9977L18.9961 33.7781Z" fill="#CC3B37"/>
<path d="M20.7446 28.4075L20.7446 24.275L29.0096 30.1786L29.0096 34.3111L20.7446 28.4075Z" fill="#4D889D"/>
<path d="M33.1421 27.2269L33.1421 31.3594L29.0096 34.3111L29.0096 30.1786L33.1421 27.2269Z" fill="#235F74"/>
<path d="M20.7446 24.2751L24.8771 21.3233L33.1421 27.2268L29.0096 30.1786L20.7446 24.2751Z" fill="#73A1B2"/>
<path d="M27.6546 23.3027L23.4717 26.2249L25.166 27.4324L29.2788 24.4611L27.6546 23.3027Z" fill="#4D889D"/>
<path d="M30.3189 25.2111L26.231 28.1943L27.9253 29.4018L31.984 26.389L30.3189 25.2111Z" fill="#4D889D"/>
<path d="M24.8983 21.3308L20.7456 24.2834L22.4399 25.491L26.5552 22.5062L24.8983 21.3308Z" fill="#4D889D"/>
<path d="M23.4712 30.3425L23.4712 26.2092L25.1686 27.4288L25.1686 31.5622L23.4712 30.3425Z" fill="#235F74"/>
<path d="M26.23 32.3119L26.23 28.1786L27.9274 29.3983L27.9274 33.5316L26.23 32.3119Z" fill="#235F74"/>
<path d="M20.7446 28.4011L20.7446 24.2678L22.442 25.4875L22.442 29.6208L20.7446 28.4011Z" fill="#235F74"/>
<g style="mix-blend-mode:multiply" opacity="0.2">
<path d="M42.2663 14.1697C42.4608 14.0219 42.7405 14.0754 42.8672 14.2843C44.5322 17.0291 44.9136 18.8748 43.8771 20.618C46.3844 19.7403 48.5862 20.3605 51.6531 22.4994C51.763 22.576 51.8214 22.6925 51.8285 22.8116C51.856 22.9621 51.7992 23.1258 51.6585 23.2241C47.8027 25.9195 45.2641 26.6365 41.6568 24.7491L41.8946 26.2551C43.2616 34.913 39.7183 43.6154 32.6924 48.856L30.5663 50.4419L30.5663 50.4424C30.4045 50.566 30.2402 50.6898 30.0717 50.8108L29.8381 50.9851C29.7529 51.0486 29.6651 51.1027 29.5755 51.1479C28.8278 51.6232 27.9801 52.0004 26.9152 52.0617C25.517 52.1421 24.1911 51.7043 23.6369 51.4068C23.5326 51.3531 23.4303 51.2911 23.3307 51.2205L16.1848 46.158C15.221 45.4752 14.6677 44.3416 14.6025 43.1622C14.5927 42.9835 14.583 42.8031 14.5754 42.6196C14.5591 42.3895 14.5411 42.0992 14.5508 41.8542C14.4869 39.5483 14.5808 37.9746 14.8772 36.0434C14.8808 36.0096 14.8853 35.9744 14.8909 35.9375C14.9026 35.8595 14.9158 35.7825 14.9303 35.7065L14.9307 35.704C14.9375 35.6621 14.946 35.6205 14.9562 35.5791C15.3784 33.6101 16.7154 32.3432 17.8634 31.4231C18.234 31.1062 18.6121 30.8061 18.9971 30.5214L18.9971 29.6447L19.0006 29.6473L20.7448 28.4015L20.7448 24.2677L20.7499 24.2714L24.8773 21.3232L24.8927 21.3342L24.8974 21.3308L26.554 22.5059L26.5436 22.5134L27.6512 23.3046L27.654 23.3026L27.7672 23.3833L28.3451 22.9724L28.3492 22.9753L28.3533 22.9724L29.5362 23.8174L30.0016 24.1476L30.0001 24.1487L31.5976 25.2898C32.1921 25.136 32.7896 24.9848 33.3888 24.833C35.4516 24.3107 37.5354 23.7831 39.5961 23.1307C39.819 23.0601 40.038 22.9782 40.2536 22.8836C40.2535 22.8773 40.2536 22.8711 40.2539 22.8648C38.1992 19.0327 38.6012 16.9561 42.2663 14.1697Z" fill="#235F74"/>
</g>
<g style="mix-blend-mode:plus-lighter">
<path d="M7.94629 17.8437V42.8122L32.9147 60.6468V35.6783L7.94629 17.8437Z" fill="#00AA9B" fill-opacity="0.2"/>
</g>
<g style="mix-blend-mode:plus-darker">
<path d="M57.8833 17.8437V42.8122L32.9149 60.6468V35.6783L57.8833 17.8437Z" fill="#00AA9B" fill-opacity="0.1"/>
</g>
<g style="mix-blend-mode:plus-lighter">
<path d="M32.9147 0.00909424L7.94629 17.8437L32.9147 35.6783L57.8832 17.8437L32.9147 0.00909424Z" fill="#232D4B" fill-opacity="0.3"/>
</g>
<path d="M76.7268 11.152C78.5028 11.152 80.0548 11.504 81.3828 12.208C82.7108 12.912 83.7348 13.904 84.4548 15.184C85.1908 16.448 85.5588 17.912 85.5588 19.576C85.5588 21.224 85.1908 22.688 84.4548 23.968C83.7348 25.248 82.7028 26.24 81.3588 26.944C80.0308 27.648 78.4868 28 76.7268 28H70.4148V11.152H76.7268ZM76.4628 24.448C78.0148 24.448 79.2228 24.024 80.0868 23.176C80.9508 22.328 81.3828 21.128 81.3828 19.576C81.3828 18.024 80.9508 16.816 80.0868 15.952C79.2228 15.088 78.0148 14.656 76.4628 14.656H74.5188V24.448H76.4628ZM93.9483 28.192C92.6363 28.192 91.4523 27.912 90.3963 27.352C89.3563 26.792 88.5323 25.992 87.9243 24.952C87.3323 23.912 87.0363 22.696 87.0363 21.304C87.0363 19.928 87.3403 18.72 87.9483 17.68C88.5563 16.624 89.3883 15.816 90.4443 15.256C91.5003 14.696 92.6843 14.416 93.9963 14.416C95.3083 14.416 96.4923 14.696 97.5483 15.256C98.6043 15.816 99.4363 16.624 100.044 17.68C100.652 18.72 100.956 19.928 100.956 21.304C100.956 22.68 100.644 23.896 100.02 24.952C99.4123 25.992 98.5723 26.792 97.5003 27.352C96.4443 27.912 95.2603 28.192 93.9483 28.192ZM93.9483 24.64C94.7323 24.64 95.3963 24.352 95.9403 23.776C96.5003 23.2 96.7803 22.376 96.7803 21.304C96.7803 20.232 96.5083 19.408 95.9643 18.832C95.4363 18.256 94.7803 17.968 93.9963 17.968C93.1963 17.968 92.5323 18.256 92.0043 18.832C91.4763 19.392 91.2123 20.216 91.2123 21.304C91.2123 22.376 91.4683 23.2 91.9803 23.776C92.5083 24.352 93.1643 24.64 93.9483 24.64ZM102.318 21.304C102.318 19.912 102.598 18.696 103.158 17.656C103.734 16.616 104.526 15.816 105.534 15.256C106.558 14.696 107.726 14.416 109.038 14.416C110.718 14.416 112.118 14.856 113.238 15.736C114.374 16.616 115.118 17.856 115.47 19.456H111.102C110.734 18.432 110.022 17.92 108.966 17.92C108.214 17.92 107.614 18.216 107.166 18.808C106.718 19.384 106.494 20.216 106.494 21.304C106.494 22.392 106.718 23.232 107.166 23.824C107.614 24.4 108.214 24.688 108.966 24.688C110.022 24.688 110.734 24.176 111.102 23.152H115.47C115.118 24.72 114.374 25.952 113.238 26.848C112.102 27.744 110.702 28.192 109.038 28.192C107.726 28.192 106.558 27.912 105.534 27.352C104.526 26.792 103.734 25.992 103.158 24.952C102.598 23.912 102.318 22.696 102.318 21.304ZM125.849 28L121.769 22.384V28H117.665V10.24H121.769V20.056L125.825 14.608H130.889L125.321 21.328L130.937 28H125.849ZM145.125 21.088C145.125 21.472 145.101 21.872 145.053 22.288H135.765C135.829 23.12 136.093 23.76 136.557 24.208C137.037 24.64 137.621 24.856 138.309 24.856C139.333 24.856 140.045 24.424 140.445 23.56H144.813C144.589 24.44 144.181 25.232 143.589 25.936C143.013 26.64 142.285 27.192 141.405 27.592C140.525 27.992 139.541 28.192 138.453 28.192C137.141 28.192 135.973 27.912 134.949 27.352C133.925 26.792 133.125 25.992 132.549 24.952C131.973 23.912 131.685 22.696 131.685 21.304C131.685 19.912 131.965 18.696 132.525 17.656C133.101 16.616 133.901 15.816 134.925 15.256C135.949 14.696 137.125 14.416 138.453 14.416C139.749 14.416 140.901 14.688 141.909 15.232C142.917 15.776 143.701 16.552 144.261 17.56C144.837 18.568 145.125 19.744 145.125 21.088ZM140.925 20.008C140.925 19.304 140.685 18.744 140.205 18.328C139.725 17.912 139.125 17.704 138.405 17.704C137.717 17.704 137.133 17.904 136.653 18.304C136.189 18.704 135.901 19.272 135.789 20.008H140.925ZM151.394 16.84C151.874 16.104 152.474 15.528 153.194 15.112C153.914 14.68 154.714 14.464 155.594 14.464V18.808H154.466C153.442 18.808 152.674 19.032 152.162 19.48C151.65 19.912 151.394 20.68 151.394 21.784V28H147.29V14.608H151.394V16.84Z" fill="#17254F"/>
<path d="M76.7268 35.152C78.5028 35.152 80.0548 35.504 81.3828 36.208C82.7108 36.912 83.7348 37.904 84.4548 39.184C85.1908 40.448 85.5588 41.912 85.5588 43.576C85.5588 45.224 85.1908 46.688 84.4548 47.968C83.7348 49.248 82.7028 50.24 81.3588 50.944C80.0308 51.648 78.4868 52 76.7268 52H70.4148V35.152H76.7268ZM76.4628 48.448C78.0148 48.448 79.2228 48.024 80.0868 47.176C80.9508 46.328 81.3828 45.128 81.3828 43.576C81.3828 42.024 80.9508 40.816 80.0868 39.952C79.2228 39.088 78.0148 38.656 76.4628 38.656H74.5188V48.448H76.4628ZM100.476 45.088C100.476 45.472 100.452 45.872 100.404 46.288H91.1163C91.1803 47.12 91.4443 47.76 91.9083 48.208C92.3883 48.64 92.9723 48.856 93.6603 48.856C94.6843 48.856 95.3963 48.424 95.7963 47.56H100.164C99.9403 48.44 99.5323 49.232 98.9403 49.936C98.3643 50.64 97.6363 51.192 96.7563 51.592C95.8763 51.992 94.8923 52.192 93.8043 52.192C92.4923 52.192 91.3243 51.912 90.3003 51.352C89.2763 50.792 88.4763 49.992 87.9003 48.952C87.3243 47.912 87.0363 46.696 87.0363 45.304C87.0363 43.912 87.3163 42.696 87.8763 41.656C88.4523 40.616 89.2523 39.816 90.2763 39.256C91.3003 38.696 92.4763 38.416 93.8043 38.416C95.1003 38.416 96.2523 38.688 97.2603 39.232C98.2683 39.776 99.0523 40.552 99.6123 41.56C100.188 42.568 100.476 43.744 100.476 45.088ZM96.2763 44.008C96.2763 43.304 96.0363 42.744 95.5563 42.328C95.0763 41.912 94.4763 41.704 93.7563 41.704C93.0683 41.704 92.4843 41.904 92.0043 42.304C91.5403 42.704 91.2523 43.272 91.1403 44.008H96.2763ZM108.665 48.16L111.569 38.608H115.937L111.185 52H106.121L101.369 38.608H105.761L108.665 48.16ZM127.865 43.36C128.841 43.568 129.625 44.056 130.217 44.824C130.809 45.576 131.105 46.44 131.105 47.416C131.105 48.824 130.609 49.944 129.617 50.776C128.641 51.592 127.273 52 125.513 52H117.665V35.152H125.249C126.961 35.152 128.297 35.544 129.257 36.328C130.233 37.112 130.721 38.176 130.721 39.52C130.721 40.512 130.457 41.336 129.929 41.992C129.417 42.648 128.729 43.104 127.865 43.36ZM121.769 41.968H124.457C125.129 41.968 125.641 41.824 125.993 41.536C126.361 41.232 126.545 40.792 126.545 40.216C126.545 39.64 126.361 39.2 125.993 38.896C125.641 38.592 125.129 38.44 124.457 38.44H121.769V41.968ZM124.793 48.688C125.481 48.688 126.009 48.536 126.377 48.232C126.761 47.912 126.953 47.456 126.953 46.864C126.953 46.272 126.753 45.808 126.353 45.472C125.969 45.136 125.433 44.968 124.745 44.968H121.769V48.688H124.793ZM139.581 52.192C138.269 52.192 137.085 51.912 136.029 51.352C134.989 50.792 134.165 49.992 133.557 48.952C132.965 47.912 132.669 46.696 132.669 45.304C132.669 43.928 132.973 42.72 133.581 41.68C134.189 40.624 135.021 39.816 136.077 39.256C137.133 38.696 138.317 38.416 139.629 38.416C140.941 38.416 142.125 38.696 143.181 39.256C144.237 39.816 145.069 40.624 145.677 41.68C146.285 42.72 146.589 43.928 146.589 45.304C146.589 46.68 146.277 47.896 145.653 48.952C145.045 49.992 144.205 50.792 143.133 51.352C142.077 51.912 140.893 52.192 139.581 52.192ZM139.581 48.64C140.365 48.64 141.029 48.352 141.573 47.776C142.133 47.2 142.413 46.376 142.413 45.304C142.413 44.232 142.141 43.408 141.597 42.832C141.069 42.256 140.413 41.968 139.629 41.968C138.829 41.968 138.165 42.256 137.637 42.832C137.109 43.392 136.845 44.216 136.845 45.304C136.845 46.376 137.101 47.2 137.613 47.776C138.141 48.352 138.797 48.64 139.581 48.64ZM156.686 52L154.118 48.28L151.958 52H147.518L151.934 45.16L147.398 38.608H152.006L154.574 42.304L156.734 38.608H161.174L156.686 45.352L161.294 52H156.686Z" fill="#006469"/>
</svg>
