<svg width="48" height="48" viewBox="0 0 48 48" fill="none" xmlns="http://www.w3.org/2000/svg">
<path d="M13.1987 24.8401L13.1987 14.0378L34.8033 29.4697L34.8033 40.2719L13.1987 24.8401Z" fill="#148178"/>
<path d="M14.3271 25.63L14.3271 14.8254L15.9447 15.9816L15.9447 26.7861L14.3271 25.63Z" fill="#0B5B54"/>
<path d="M17.2827 27.7431L17.2827 16.9386L18.9002 18.0948L18.9002 28.8993L17.2827 27.7431Z" fill="#0B5B54"/>
<path d="M20.2373 29.8552L20.2373 19.0507L21.8548 20.2068L21.8548 31.0114L20.2373 29.8552Z" fill="#0B5B54"/>
<path d="M23.1909 31.9678L23.1909 21.1633L24.8084 22.3195L24.8084 33.124L23.1909 31.9678Z" fill="#0B5B54"/>
<path d="M26.1475 34.0804L26.1475 23.2759L27.765 24.4321L27.765 35.2366L26.1475 34.0804Z" fill="#0B5B54"/>
<path d="M29.1016 36.1932L29.1016 25.3887L30.7191 26.5449L30.7191 37.3494L29.1016 36.1932Z" fill="#0B5B54"/>
<path d="M31.0928 37.6213L31.0928 26.8168L32.7103 27.973L32.7103 38.7775L31.0928 37.6213Z" fill="#0B5B54"/>
<path d="M45.6055 21.7537L45.6055 32.556L34.8032 40.2719L34.8032 29.4696L45.6055 21.7537Z" fill="#166E66"/>
<path d="M13.1987 14.0379L24.001 6.32196L45.6056 21.7538L34.8033 29.4697L13.1987 14.0379Z" fill="#01A999"/>
<path d="M14.3271 25.63L14.3271 14.8254L15.9447 15.9816L15.9447 26.7861L14.3271 25.63Z" fill="#0B5B54"/>
<path d="M31.1884 11.4761L20.2544 19.1146L24.6833 22.2711L35.4341 14.5043L31.1884 11.4761Z" fill="#148178"/>
<path d="M38.152 16.4647L27.4663 24.2627L31.8952 27.4192L42.5048 19.5438L38.152 16.4647Z" fill="#148178"/>
<path d="M23.9821 6.32208L13.127 14.0403L17.5558 17.1968L28.3132 9.39453L23.9821 6.32208Z" fill="#148178"/>
<path d="M20.2529 29.8781L20.2529 19.0736L24.6899 22.2618L24.6899 33.0663L20.2529 29.8781Z" fill="#0B5B54"/>
<path d="M27.4644 35.0261L27.4644 24.2216L31.9013 27.4098L31.9013 38.2143L27.4644 35.0261Z" fill="#0B5B54"/>
<path d="M13.125 24.8036L13.125 13.9991L17.5619 17.1873L17.5619 27.9918L13.125 24.8036Z" fill="#0B5B54"/>
<path d="M2.39502 32.568L2.39502 21.7657L23.9996 37.1975L23.9996 47.9998L2.39502 32.568Z" fill="#F04641"/>
<path d="M34.8032 29.4818L34.8032 40.2841L24.0009 48L24.0009 37.1977L34.8032 29.4818Z" fill="#CC3B37"/>
<path d="M2.39502 21.7657L13.1973 14.0498L34.8019 29.4816L23.9996 37.1975L2.39502 21.7657Z" fill="#F2625E"/>
<path d="M20.4579 19.2296L9.52393 26.868L13.9528 30.0245L24.7037 22.2577L20.4579 19.2296Z" fill="#F04641"/>
<path d="M27.4225 24.2181L16.7368 32.0162L21.1657 35.1727L31.7753 27.2973L27.4225 24.2181Z" fill="#F04641"/>
<path d="M13.2541 14.0751L2.39893 21.7932L6.82779 24.9497L17.5851 17.1475L13.2541 14.0751Z" fill="#F04641"/>
<path d="M9.52295 37.6315L9.52295 26.827L13.9599 30.0152L13.9599 40.8198L9.52295 37.6315Z" fill="#CC3B37"/>
<path d="M16.7354 42.7795L16.7354 31.975L21.1723 35.1632L21.1723 45.9677L16.7354 42.7795Z" fill="#CC3B37"/>
<path d="M2.39502 32.5568L2.39502 21.7523L6.83195 24.9405L6.83195 35.745L2.39502 32.5568Z" fill="#CC3B37"/>
<path d="M6.96533 18.5183L6.96533 7.716L28.5699 23.1478L28.5699 33.9501L6.96533 18.5183Z" fill="#4D889D"/>
<path d="M39.3721 15.432L39.3721 26.2343L28.5698 33.9502L28.5698 23.1479L39.3721 15.432Z" fill="#205466"/>
<path d="M6.96533 7.71598L17.7676 6.10368e-05L39.3722 15.4319L28.5699 23.1478L6.96533 7.71598Z" fill="#73A1B2"/>
<path d="M25.0282 5.17438L14.0942 12.8128L18.5231 15.9693L29.274 8.20252L25.0282 5.17438Z" fill="#4D889D"/>
<path d="M31.9929 10.1627L21.3071 17.9608L25.736 21.1173L36.3456 13.2419L31.9929 10.1627Z" fill="#4D889D"/>
<path d="M17.8234 0.0197144L6.96826 7.73789L11.3971 10.8944L22.1545 3.09217L17.8234 0.0197144Z" fill="#4D889D"/>
<path d="M14.0928 23.5761L14.0928 12.7716L18.5297 15.9598L18.5297 26.7643L14.0928 23.5761Z" fill="#235F74"/>
<path d="M21.3042 28.7243L21.3042 17.9198L25.7411 21.108L25.7411 31.9125L21.3042 28.7243Z" fill="#235F74"/>
<path d="M6.96533 18.5015L6.96533 7.69702L11.4023 10.8852L11.4023 21.6898L6.96533 18.5015Z" fill="#235F74"/>
</svg>
