<svg width="257" height="257" viewBox="0 0 257 257" fill="none" xmlns="http://www.w3.org/2000/svg">
<path fill-rule="evenodd" clip-rule="evenodd" d="M88.4601 28.6986L128.214 0.257111L228.179 71.6455L228.082 71.7148V71.7151L228.179 71.6455V171.519L228.179 171.52L128.306 242.858L128.305 242.858L128.305 242.858L28.4314 171.52L28.4311 171.519V171.45L28.3345 171.519V71.6455L88.4601 28.6986Z" fill="#232D4B"/>
<path d="M128.305 100.167L28.4314 171.506L128.305 242.844L228.179 171.506L128.305 100.167Z" fill="#00AA9B" fill-opacity="0.5"/>
<g style="mix-blend-mode:plus-darker">
<path d="M228.082 71.632V171.506L128.208 100.167V0.293518L228.082 71.632Z" fill="#232D4B" fill-opacity="0.1"/>
</g>
<path d="M28.3345 71.6319V171.506L128.208 100.167V0.293457L28.3345 71.6319Z" fill="#232D4B" fill-opacity="0.5"/>
<path d="M203.179 90.4544C204.126 91.1046 204.123 92.4952 203.182 93.1533C186.023 105.149 175.385 107.348 158.127 96.3048C157.152 95.6811 157.117 94.2769 158.051 93.5938C175.044 81.167 185.685 78.4422 203.179 90.4544Z" fill="#018AC0"/>
<path d="M56.111 144.011C57.5182 134.676 63.9884 129.076 69.0452 125.126L69.9863 135.397C65.9203 141.027 54.8894 152.114 56.111 144.011Z" fill="#B3D9E3"/>
<path d="M106.005 164.76L66.9012 137.004C62.9621 134.522 57.0144 138.477 56.2703 143.073C54.7838 152.255 54.4035 159.167 54.85 170.639C54.9668 173.639 58.1994 180.606 60.7523 182.187L97.5615 205.465C100.225 207.113 104.918 209.232 105.105 206.105L106.005 164.76Z" fill="#52B9D6"/>
<path d="M118.813 202.027C114.827 205.072 110.451 208.145 104.209 208.504C97.9664 208.863 92.0849 206.64 90.4527 205.497C90.3075 202.972 98.0608 199.437 104.303 199.078C110.545 198.719 118.668 199.502 118.813 202.027Z" fill="#ACDAE5"/>
<path d="M106.002 164.76L162.176 92.929L164.126 105.277C169.594 139.909 155.421 174.719 127.317 195.681L115.9 204.197C111.314 207.618 104.805 204.229 104.979 198.51L106.002 164.76Z" fill="#018AC0"/>
<path d="M65.1899 128.47C89.6197 105.515 122.973 102.898 154.932 92.7799C156.92 92.1504 158.829 91.2954 160.688 90.1546L162.552 92.8462V92.8462C147.28 110.607 155.562 131.465 136.255 144.73L106.377 165.259L68.1208 137.941C64.9451 135.976 61.5172 132.754 65.1899 128.47V128.47Z" fill="#68C6DD"/>
<path d="M114.89 159.888C112.89 161.119 105.54 169.859 105.701 176.083C105.146 169.637 104.761 165.22 99.9926 160.65C101.642 161.927 103.877 162.852 106.195 162.908C110.837 163.019 112.741 161.122 114.89 159.888Z" fill="#27ABCB"/>
<ellipse cx="117.505" cy="177.548" rx="4.99107" ry="3.70706" transform="rotate(-23.973 117.505 177.548)" fill="white"/>
<ellipse cx="118.866" cy="176.27" rx="3.35246" ry="2.77429" transform="rotate(3.43283 118.866 176.27)" fill="black"/>
<ellipse cx="110.945" cy="132.983" rx="1.68844" ry="1.32884" transform="rotate(28.6134 110.945 132.983)" fill="#018AC0"/>
<path d="M203.16 90.2547C204.102 90.9118 204.098 92.3024 203.152 92.9541C186.008 104.766 175.556 104.391 158.31 93.1599C157.341 92.5284 157.306 91.1242 158.245 90.4474C175.223 78.2062 185.678 78.0627 203.16 90.2547Z" fill="#75CADF"/>
<path d="M168.017 57.3941C167.51 56.5587 166.391 56.3445 165.613 56.9358C150.467 68.4508 149.252 76.9356 158.413 93.2645C158.896 94.1241 160.019 94.3703 160.816 93.7917C176.393 82.4964 178.161 74.1171 168.017 57.3941Z" fill="#75CADF"/>
<path d="M105.316 199.17C83.3219 193.621 71.919 185.61 54.7874 168.002C54.7874 169.716 54.8705 171.326 54.9577 172.906C55.2183 177.623 57.4314 182.158 61.2867 184.889L89.8703 205.139C95.6714 209.249 103.786 206.113 105.316 199.17Z" fill="#CAEAF2"/>
<path fill-rule="evenodd" clip-rule="evenodd" d="M100.913 199.509C85.0738 195.04 76.3637 191.837 54.9054 171.527C54.8402 170.557 54.6955 168.915 54.7534 167.612C74.933 187.111 85.498 192.743 101.772 197.348C102.821 197.764 105.018 196.944 105.018 196.944C105.531 196.636 107.187 195.975 107.736 195.65C109.59 194.551 111.214 193.74 113.1 192.751C114.687 191.919 115.142 191.466 116.294 190.88V190.88C116.89 190.44 117.144 190.679 116.644 191.226V191.226C115.689 192.272 115.323 192.757 114.141 193.555C112.313 194.79 110.637 196.027 108.711 197.168C108.173 197.487 105.647 199.071 105.157 199.365C105.157 199.365 102.667 200.206 100.913 199.509Z" fill="#291717"/>
<ellipse cx="119.87" cy="175.056" rx="1.29958" ry="1.35748" transform="rotate(-3.29237 119.87 175.056)" fill="white"/>
<path d="M93.4307 120.484L93.4307 103.954L126.491 127.568L126.491 144.098L93.4307 120.484Z" fill="#148178"/>
<path d="M95.1575 121.692L95.1575 105.159L97.6326 106.928L97.6326 123.462L95.1575 121.692Z" fill="#0B5B54"/>
<path d="M99.6804 124.926L99.6804 108.393L102.156 110.162L102.156 126.695L99.6804 124.926Z" fill="#0B5B54"/>
<path d="M104.202 128.158L104.202 111.625L106.677 113.394L106.677 129.927L104.202 128.158Z" fill="#0B5B54"/>
<path d="M108.724 131.391L108.724 114.857L111.199 116.627L111.199 133.16L108.724 131.391Z" fill="#0B5B54"/>
<path d="M113.246 134.624L113.246 118.09L115.721 119.859L115.721 136.393L113.246 134.624Z" fill="#0B5B54"/>
<path d="M117.768 137.856L117.768 121.323L120.243 123.092L120.243 139.626L117.768 137.856Z" fill="#0B5B54"/>
<path d="M122.29 141.089L122.29 124.556L124.765 126.325L124.765 142.858L122.29 141.089Z" fill="#0B5B54"/>
<path d="M143.021 115.761L143.021 132.291L126.491 144.098L126.491 127.568L143.021 115.761Z" fill="#0B5B54"/>
<path d="M93.4307 103.954L109.961 92.1468L143.021 115.761L126.491 127.568L93.4307 103.954Z" fill="#01A999"/>
<path d="M95.1575 121.692L95.1575 105.159L97.6326 106.928L97.6326 123.462L95.1575 121.692Z" fill="#0B5B54"/>
<path d="M120.958 100.034L104.226 111.723L111.003 116.553L127.455 104.668L120.958 100.034Z" fill="#148178"/>
<path d="M131.614 107.668L115.262 119.601L122.039 124.431L138.274 112.38L131.614 107.668Z" fill="#148178"/>
<path d="M109.933 92.1469L93.322 103.957L100.099 108.788L116.56 96.8485L109.933 92.1469Z" fill="#148178"/>
<path d="M104.223 128.193L104.223 111.66L111.013 116.539L111.013 133.072L104.223 128.193Z" fill="#0B5B54"/>
<path d="M115.259 136.071L115.259 119.538L122.049 124.416L122.049 140.95L115.259 136.071Z" fill="#0B5B54"/>
<path d="M93.3176 120.428L93.3176 103.895L100.107 108.773L100.107 125.307L93.3176 120.428Z" fill="#0B5B54"/>
<path d="M72.5359 135.386L72.5359 118.856L105.596 142.471L105.596 159.001L72.5359 135.386Z" fill="#F04641"/>
<path d="M122.126 130.664L122.126 147.194L105.596 159.001L105.596 142.471L122.126 130.664Z" fill="#CC3B37"/>
<path d="M72.5359 118.856L89.0659 107.049L122.126 130.664L105.596 142.471L72.5359 118.856Z" fill="#F2625E"/>
<path d="M100.176 114.976L83.4446 126.664L90.2218 131.494L106.673 119.609L100.176 114.976Z" fill="#F04641"/>
<path d="M110.832 122.609L94.4802 134.542L101.257 139.372L117.493 127.321L110.832 122.609Z" fill="#F04641"/>
<path d="M89.1509 107.088L72.54 118.898L79.3172 123.729L95.7784 111.789L89.1509 107.088Z" fill="#F04641"/>
<path d="M83.4417 143.135L83.4417 126.601L90.2312 131.48L90.2312 148.013L83.4417 143.135Z" fill="#CC3B37"/>
<path d="M94.4773 151.012L94.4773 134.479L101.267 139.358L101.267 155.891L94.4773 151.012Z" fill="#CC3B37"/>
<path d="M72.5359 135.369L72.5359 118.836L79.3254 123.715L79.3254 140.248L72.5359 135.369Z" fill="#CC3B37"/>
<path d="M79.5269 113.887L79.5269 97.3572L112.587 120.971L112.587 137.501L79.5269 113.887Z" fill="#4D889D"/>
<path d="M129.117 109.164L129.117 125.694L112.587 137.502L112.587 120.972L129.117 109.164Z" fill="#235F74"/>
<path d="M79.5269 97.3571L96.0568 85.55L129.117 109.164L112.587 120.971L79.5269 97.3571Z" fill="#73A1B2"/>
<path d="M107.167 93.4679L90.4355 105.157L97.2127 109.987L113.664 98.1016L107.167 93.4679Z" fill="#4D889D"/>
<path d="M117.823 101.101L101.471 113.034L108.248 117.864L124.483 105.813L117.823 101.101Z" fill="#4D889D"/>
<path d="M96.1421 85.5801L79.5312 97.3907L86.3084 102.221L102.77 90.2817L96.1421 85.5801Z" fill="#4D889D"/>
<path d="M90.4326 121.627L90.4326 105.094L97.2221 109.972L97.2221 126.506L90.4326 121.627Z" fill="#235F74"/>
<path d="M101.469 129.505L101.469 112.971L108.258 117.85L108.258 134.383L101.469 129.505Z" fill="#235F74"/>
<path d="M79.5269 113.862L79.5269 97.3281L86.3164 102.207L86.3164 118.74L79.5269 113.862Z" fill="#235F74"/>
<g style="mix-blend-mode:multiply" opacity="0.2">
<path d="M165.613 56.9357C166.391 56.3444 167.51 56.5586 168.016 57.3939C174.676 68.3732 176.202 75.7561 172.056 82.7288C182.085 79.2179 190.892 81.6991 203.16 90.2545C203.6 90.561 203.833 91.0269 203.862 91.5031C203.972 92.1052 203.744 92.7599 203.182 93.1532C187.759 103.935 177.604 106.803 163.175 99.2532L164.126 105.277C169.594 139.909 155.421 174.719 127.317 195.681L118.813 202.024L118.813 202.026C118.166 202.521 117.508 203.016 116.834 203.5L115.9 204.197C115.559 204.451 115.208 204.668 114.85 204.848C111.859 206.75 108.468 208.258 104.208 208.504C98.6154 208.825 93.3121 207.074 91.0953 205.884C90.678 205.669 90.2687 205.421 89.8703 205.139L61.2867 184.889C57.4314 182.158 55.2183 177.623 54.9577 172.906C54.9182 172.191 54.8796 171.469 54.8491 170.735C54.7841 169.815 54.7122 168.654 54.7507 167.673C54.4952 158.45 54.871 152.155 56.0565 144.43C56.0707 144.295 56.0889 144.154 56.1111 144.007C56.1581 143.695 56.2109 143.387 56.269 143.083L56.2706 143.073C56.2977 142.905 56.3318 142.739 56.3724 142.573C58.0611 134.697 63.4092 129.63 68.0013 125.949C69.4838 124.682 70.996 123.481 72.5359 122.342L72.5359 118.836L72.5502 118.846L79.527 113.863L79.527 97.3278L79.5473 97.3424L96.057 85.5498L96.1182 85.5936L96.1373 85.58L102.763 90.2806L102.722 90.3106L107.153 93.4753L107.164 93.4675L107.616 93.7902L109.928 92.1466L109.944 92.1582L109.961 92.1466L114.692 95.5263L116.554 96.8472L116.548 96.8517L122.938 101.416C125.316 100.801 127.706 100.196 130.103 99.5891C138.354 97.4998 146.689 95.3893 154.932 92.7797C155.824 92.4974 156.699 92.1697 157.562 91.7913C157.562 91.7662 157.562 91.7412 157.563 91.7161C149.344 76.3878 150.953 68.0811 165.613 56.9357Z" fill="#235F74"/>
</g>
<g style="mix-blend-mode:plus-lighter">
<path d="M28.3345 71.6319V171.506L128.208 242.844V142.97L28.3345 71.6319Z" fill="#00AA9B" fill-opacity="0.2"/>
</g>
<g style="mix-blend-mode:plus-darker">
<path d="M228.082 71.6319V171.506L128.208 242.844V142.97L228.082 71.6319Z" fill="#00AA9B" fill-opacity="0.1"/>
</g>
<g style="mix-blend-mode:plus-lighter">
<path d="M128.208 0.293457L28.3345 71.6319L128.208 142.97L228.082 71.6319L128.208 0.293457Z" fill="#232D4B" fill-opacity="0.3"/>
</g>
<path d="M139.548 238.905C141.377 237.605 143.345 236.716 145.45 236.24C147.556 235.763 149.651 235.712 151.735 236.087C153.819 236.438 155.734 237.2 157.479 238.373C159.208 239.534 160.364 240.834 160.949 242.275C161.55 243.704 161.528 245.159 160.883 246.639C160.254 248.107 159.033 249.486 157.221 250.774L150.721 255.396L133.049 243.527L139.548 238.905ZM153.223 248.465C154.821 247.329 155.62 246.146 155.621 244.916C155.621 243.686 154.807 242.524 153.179 241.43C151.551 240.337 149.839 239.802 148.043 239.826C146.247 239.85 144.55 240.431 142.952 241.567L140.95 242.99L151.221 249.889L153.223 248.465ZM174.426 228.514C174.829 228.785 175.224 229.084 175.611 229.412L166.047 236.214C166.985 236.753 167.928 237.01 168.876 236.986C169.823 236.939 170.651 236.664 171.36 236.16C172.414 235.41 172.694 234.584 172.2 233.683L176.698 230.484C177.39 231.268 177.801 232.125 177.93 233.054C178.075 233.972 177.904 234.894 177.418 235.82C176.931 236.747 176.128 237.608 175.007 238.405C173.656 239.365 172.16 240.023 170.518 240.379C168.876 240.734 167.213 240.756 165.529 240.445C163.845 240.134 162.273 239.489 160.813 238.508C159.353 237.527 158.366 236.466 157.852 235.323C157.354 234.168 157.338 233.019 157.806 231.875C158.273 230.73 159.19 229.672 160.557 228.699C161.892 227.75 163.363 227.099 164.972 226.744C166.581 226.389 168.202 226.361 169.836 226.661C171.486 226.95 173.016 227.567 174.426 228.514ZM168.968 230.829C168.23 230.333 167.395 230.114 166.465 230.173C165.534 230.231 164.698 230.524 163.957 231.051C163.248 231.555 162.857 232.123 162.782 232.757C162.724 233.378 163.023 233.989 163.68 234.59L168.968 230.829ZM186.081 224.682L179.052 215.826L183.55 212.628L192.704 225.542L187.489 229.25L168.549 223.295L173.071 220.079L186.081 224.682ZM200.816 207.242C202.04 206.673 203.359 206.443 204.774 206.551C206.172 206.647 207.383 207.039 208.407 207.726C209.884 208.718 210.548 209.871 210.399 211.183C210.25 212.473 209.27 213.762 207.457 215.051L199.376 220.797L181.704 208.928L189.513 203.375C191.276 202.121 193.063 201.419 194.874 201.268C196.701 201.106 198.32 201.498 199.73 202.445C200.77 203.144 201.363 203.918 201.507 204.766C201.668 205.603 201.438 206.429 200.816 207.242ZM193.079 210.725L195.847 208.756C196.539 208.264 196.915 207.788 196.976 207.327C197.036 206.844 196.764 206.399 196.159 205.993C195.555 205.587 194.904 205.412 194.206 205.467C193.525 205.511 192.838 205.779 192.146 206.271L189.379 208.239L193.079 210.725ZM203.242 213.245C203.95 212.741 204.334 212.247 204.395 211.763C204.454 211.257 204.174 210.795 203.553 210.378C202.932 209.961 202.239 209.78 201.475 209.837C200.727 209.881 199.999 210.155 199.29 210.659L196.226 212.838L200.128 215.459L203.242 213.245ZM222.145 204.884C220.794 205.845 219.281 206.515 217.606 206.894C215.948 207.261 214.261 207.3 212.544 207.013C210.843 206.714 209.263 206.074 207.803 205.093C206.359 204.124 205.405 203.05 204.941 201.872C204.459 200.683 204.468 199.505 204.968 198.337C205.468 197.169 206.394 196.105 207.745 195.144C209.096 194.183 210.609 193.514 212.283 193.135C213.958 192.756 215.662 192.716 217.396 193.015C219.113 193.302 220.693 193.931 222.137 194.9C223.58 195.87 224.534 196.955 224.999 198.156C225.464 199.333 225.438 200.512 224.922 201.692C224.422 202.859 223.496 203.924 222.145 204.884ZM218.419 202.382C219.227 201.808 219.608 201.119 219.564 200.315C219.537 199.499 218.961 198.713 217.836 197.958C216.712 197.203 215.568 196.821 214.403 196.814C213.255 196.795 212.278 197.072 211.47 197.646C210.647 198.232 210.265 198.921 210.326 199.714C210.369 200.495 210.962 201.269 212.103 202.035C213.227 202.79 214.355 203.183 215.487 203.214C216.635 203.234 217.612 202.956 218.419 202.382ZM239.558 192.224L233.011 191.483L234.689 195.686L230.117 198.937L227.49 190.885L215.946 189.59L220.691 186.216L227.213 186.939L225.56 182.754L230.132 179.503L232.584 187.54L244.303 188.849L239.558 192.224Z" fill="#006469"/>
<path d="M37.6793 186.036C39.5081 187.337 40.737 188.721 41.3661 190.189C41.9951 191.658 42.009 193.107 41.4078 194.536C40.8399 195.965 39.6832 197.266 37.9378 198.438C36.2092 199.599 34.2946 200.361 32.1941 200.724C30.1101 201.098 28.0069 201.042 25.8845 200.553C23.7785 200.077 21.8194 199.194 20.0071 197.906L13.5074 193.284L31.1796 181.414L37.6793 186.036ZM23.461 195.21C25.0591 196.346 26.7478 196.932 28.527 196.967C30.3062 197.003 32.0097 196.474 33.6376 195.38C35.2655 194.287 36.0878 193.119 36.1044 191.878C36.121 190.637 35.3302 189.448 33.732 188.311L31.7302 186.888L21.4592 193.786L23.461 195.21ZM37.5393 210.651C36.1882 209.691 35.2627 208.626 34.7627 207.459C34.2792 206.302 34.2698 205.136 34.7346 203.958C35.2159 202.791 36.1866 201.718 37.6467 200.737C39.09 199.768 40.6701 199.14 42.3871 198.852C44.1208 198.553 45.8251 198.593 47.4999 198.972C49.1747 199.351 50.6876 200.021 52.0386 200.981C53.3896 201.942 54.3151 203.006 54.8151 204.174C55.3151 205.342 55.3243 206.52 54.8428 207.709C54.378 208.887 53.4239 209.961 51.9806 210.93C50.5373 211.9 48.9405 212.528 47.1903 212.815C45.4733 213.102 43.7692 213.051 42.078 212.66C40.4032 212.282 38.8903 211.612 37.5393 210.651ZM41.265 208.149C42.0723 208.723 43.0582 209.006 44.2225 208.999C45.4033 209.003 46.556 208.628 47.6804 207.872C48.8049 207.117 49.3891 206.338 49.4331 205.533C49.4936 204.741 49.1202 204.058 48.3128 203.484C47.4891 202.898 46.5032 202.615 45.3553 202.634C44.2242 202.642 43.0881 203.029 41.9469 203.795C40.8224 204.55 40.2217 205.318 40.1448 206.099C40.0843 206.892 40.4577 207.575 41.265 208.149ZM53.3823 211.927C54.8424 210.946 56.4062 210.295 58.0738 209.972C59.7578 209.661 61.4124 209.678 63.0378 210.021C64.6797 210.377 66.1761 211.035 67.5271 211.995C69.257 213.226 70.2371 214.561 70.4674 216.001C70.7141 217.453 70.1796 218.871 68.8638 220.256L64.3659 217.057C65.0611 216.066 64.8649 215.184 63.7775 214.411C63.0032 213.861 62.0749 213.63 60.9926 213.719C59.9271 213.796 58.8237 214.219 57.6825 214.985C56.5413 215.752 55.8908 216.507 55.7312 217.252C55.5883 217.986 55.9041 218.629 56.6784 219.179C57.7658 219.952 59.0361 220.113 60.4891 219.661L64.987 222.86C62.9798 223.707 60.9214 224.03 58.8118 223.829C56.7022 223.629 54.7906 222.919 53.0772 221.7C51.7262 220.74 50.8171 219.687 50.3501 218.543C49.8995 217.41 49.9231 216.267 50.4208 215.112C50.9351 213.97 51.9222 212.908 53.3823 211.927ZM70.5897 233.875L72.2791 226.931L66.3884 230.888L62.1623 227.883L80.7912 215.371L85.0172 218.376L74.721 225.291L84.6121 224.423L89.8267 228.131L77.0444 228.788L75.829 237.601L70.5897 233.875ZM97.6889 243.121C97.2861 243.391 96.8418 243.656 96.3561 243.913L86.7919 237.112C85.9851 237.745 85.5856 238.389 85.5935 239.045C85.6346 239.701 86.0094 240.28 86.7179 240.784C87.7724 241.534 88.9587 241.751 90.2768 241.435L94.7747 244.634C93.621 245.09 92.3701 245.349 91.0221 245.411C89.6905 245.486 88.3619 245.341 87.0361 244.979C85.7104 244.616 84.4873 244.037 83.367 243.24C82.016 242.279 81.1069 241.227 80.6399 240.082C80.1728 238.938 80.1882 237.789 80.6859 236.634C81.1837 235.48 82.1626 234.412 83.6227 233.431C85.0828 232.451 86.6466 231.799 88.3141 231.477C89.9981 231.166 91.6611 231.188 93.3029 231.543C94.9448 231.898 96.4494 232.562 97.8169 233.535C99.1514 234.484 100.052 235.519 100.52 236.64C100.987 237.762 100.98 238.882 100.5 240.003C100.036 241.135 99.0986 242.174 97.6889 243.121ZM94.4969 239.284C95.2353 238.788 95.5755 238.218 95.5176 237.574C95.4597 236.929 95.06 236.343 94.3186 235.816C93.6102 235.312 92.799 235.025 91.8852 234.956C90.9878 234.898 90.0955 235.087 89.2081 235.524L94.4969 239.284ZM108.6 244.719C109.866 244.552 111.088 244.585 112.266 244.819C113.461 245.042 114.511 245.476 115.417 246.12L110.861 249.181L109.699 248.355C108.645 247.605 107.619 247.2 106.622 247.141C105.642 247.07 104.572 247.424 103.414 248.202L96.8942 252.581L92.6682 249.576L106.715 240.141L110.941 243.146L108.6 244.719Z" fill="#234F6A"/>
</svg>
