<svg width="65" height="64" viewBox="0 0 65 64" fill="none" xmlns="http://www.w3.org/2000/svg">
<path fill-rule="evenodd" clip-rule="evenodd" d="M22.328 7.26961L32.4891 0L57.4802 17.8471L57.4564 17.8641V17.8642L57.4804 17.8471V42.8154L57.4807 42.8156L32.5122 60.6502L32.512 60.6501L32.5119 60.6502V60.65L32.5118 60.6499V60.6502L7.54333 42.8155V42.7985L7.51953 42.8155V17.8471L22.328 7.26961Z" fill="#232D4B"/>
<path d="M32.5124 24.9775L7.54395 42.8121L32.5124 60.6468L57.4808 42.8121L32.5124 24.9775Z" fill="#00AA9B" fill-opacity="0.5"/>
<g style="mix-blend-mode:plus-darker">
<path d="M57.4565 17.8437V42.8122L32.4881 24.9776V0.00909424L57.4565 17.8437Z" fill="#232D4B" fill-opacity="0.1"/>
</g>
<path d="M7.51953 17.8437V42.8122L32.488 24.9776V0.00909424L7.51953 17.8437Z" fill="#232D4B" fill-opacity="0.5"/>
<path d="M51.231 22.5494C51.4677 22.712 51.467 23.0596 51.2316 23.2242C46.9419 26.223 44.2824 26.7729 39.9679 24.012C39.7242 23.8561 39.7153 23.5051 39.9489 23.3343C44.1972 20.2276 46.8574 19.5464 51.231 22.5494Z" fill="#018AC0"/>
<path d="M14.4635 35.9386C14.8154 33.6049 16.4329 32.2049 17.6971 31.2174L17.9324 33.785C16.9159 35.1925 14.1581 37.9644 14.4635 35.9386Z" fill="#B3D9E3"/>
<path d="M26.9366 41.1257L17.1607 34.1866C16.1759 33.5663 14.689 34.5551 14.503 35.704C14.1313 37.9995 14.0362 39.7276 14.1479 42.5955C14.1771 43.3455 14.9852 45.0874 15.6234 45.4824L24.8257 51.302C25.4916 51.7141 26.6648 52.2437 26.7115 51.462L26.9366 41.1257Z" fill="#52B9D6"/>
<path d="M30.1389 50.4424C29.1425 51.2037 28.0484 51.9719 26.4878 52.0617C24.9273 52.1514 23.4569 51.5957 23.0488 51.31C23.0125 50.6788 24.9509 49.7951 26.5114 49.7053C28.072 49.6155 30.1026 49.8113 30.1389 50.4424Z" fill="#ACDAE5"/>
<path d="M26.9358 41.1256L40.9793 23.168L41.4668 26.2551C42.8338 34.913 39.2905 43.6154 32.2646 48.856L29.4102 50.9851C28.2637 51.8402 26.6367 50.9929 26.68 49.5633L26.9358 41.1256Z" fill="#018AC0"/>
<path d="M16.733 32.0532C22.8405 26.3144 31.1787 25.6601 39.1685 23.1307C39.6656 22.9733 40.1428 22.7596 40.6076 22.4744L41.0736 23.1473V23.1473C37.2555 27.5875 39.326 32.8021 34.4994 36.1183L27.0298 41.2505L17.4657 34.4211C16.6718 33.9298 15.8148 33.1243 16.733 32.0532V32.0532Z" fill="#68C6DD"/>
<path d="M29.1582 39.9078C28.6581 40.2155 26.8206 42.4005 26.8608 43.9565C26.7222 42.3449 26.6259 41.2407 25.4338 40.0982C25.846 40.4174 26.4049 40.6487 26.9844 40.6627C28.1448 40.6905 28.6208 40.2161 29.1582 39.9078Z" fill="#27ABCB"/>
<ellipse cx="29.8116" cy="44.3227" rx="1.24777" ry="0.926766" transform="rotate(-23.973 29.8116 44.3227)" fill="white"/>
<ellipse cx="30.152" cy="44.0033" rx="0.838115" ry="0.693573" transform="rotate(3.43283 30.152 44.0033)" fill="black"/>
<ellipse cx="28.1719" cy="33.1815" rx="0.422109" ry="0.332211" transform="rotate(28.6134 28.1719 33.1815)" fill="#018AC0"/>
<path d="M51.2261 22.4994C51.4617 22.6637 51.4608 23.0114 51.2243 23.1743C46.9382 26.1272 44.3252 26.0336 40.0138 23.2257C39.7713 23.0679 39.7627 22.7168 39.9974 22.5476C44.2419 19.4873 46.8556 19.4514 51.2261 22.4994Z" fill="#75CADF"/>
<path d="M42.4403 14.2843C42.3136 14.0755 42.0339 14.0219 41.8395 14.1697C38.0529 17.0485 37.7493 19.1697 40.0395 23.2519C40.16 23.4668 40.4408 23.5283 40.6403 23.3837C44.5345 20.5599 44.9764 18.4651 42.4403 14.2843Z" fill="#75CADF"/>
<path d="M26.765 49.7284C21.2665 48.3411 18.4157 46.3384 14.1328 41.9365C14.1328 42.3647 14.1536 42.7674 14.1754 43.1623C14.2405 44.3417 14.7938 45.4753 15.7576 46.1581L22.9036 51.2206C24.3538 52.2481 26.3824 51.4641 26.765 49.7284Z" fill="#CAEAF2"/>
<path fill-rule="evenodd" clip-rule="evenodd" d="M25.6639 49.8129C21.7041 48.6957 19.5266 47.895 14.162 42.8175C14.1457 42.5751 14.1096 42.1645 14.124 41.8389C19.1689 46.7136 21.8102 48.1214 25.8787 49.2726C26.1409 49.3769 26.6901 49.1718 26.6901 49.1718C26.8185 49.0948 27.2325 48.9296 27.3697 48.8483C27.8333 48.5736 28.2391 48.3708 28.7107 48.1235C29.1073 47.9156 29.2211 47.8022 29.5093 47.6559V47.6559C29.6582 47.5458 29.7217 47.6055 29.5968 47.7422V47.7422C29.3579 48.0038 29.2665 48.1249 28.971 48.3245C28.5139 48.6333 28.0949 48.9426 27.6134 49.2279C27.4788 49.3076 26.8474 49.7035 26.7249 49.777C26.7249 49.777 26.1024 49.9873 25.6639 49.8129Z" fill="#291717"/>
<ellipse cx="30.4029" cy="43.6998" rx="0.324896" ry="0.339371" transform="rotate(-3.29237 30.4029 43.6998)" fill="white"/>
<path d="M23.7939 30.0566L23.7939 25.9241L32.0589 31.8277L32.0589 35.9602L23.7939 30.0566Z" fill="#148178"/>
<path d="M24.2256 30.3588L24.2256 26.2254L24.8444 26.6677L24.8444 30.8011L24.2256 30.3588Z" fill="#0B5B54"/>
<path d="M25.3564 31.1672L25.3564 27.0338L25.9752 27.4761L25.9752 31.6095L25.3564 31.1672Z" fill="#0B5B54"/>
<path d="M26.4868 31.9751L26.4868 27.8418L27.1056 28.2841L27.1056 32.4175L26.4868 31.9751Z" fill="#0B5B54"/>
<path d="M27.6167 32.7833L27.6167 28.65L28.2355 29.0923L28.2355 33.2256L27.6167 32.7833Z" fill="#0B5B54"/>
<path d="M28.7476 33.5915L28.7476 29.4582L29.3664 29.9005L29.3664 34.0338L28.7476 33.5915Z" fill="#0B5B54"/>
<path d="M29.8774 34.3998L29.8774 30.2664L30.4962 30.7087L30.4962 34.8421L29.8774 34.3998Z" fill="#0B5B54"/>
<path d="M31.0088 35.2079L31.0088 31.0746L31.6276 31.5169L31.6276 35.6502L31.0088 35.2079Z" fill="#0B5B54"/>
<path d="M36.1914 28.8759L36.1914 33.0084L32.0589 35.9602L32.0589 31.8277L36.1914 28.8759Z" fill="#0B5B54"/>
<path d="M23.7939 25.9241L27.9264 22.9724L36.1914 28.8759L32.0589 31.8277L23.7939 25.9241Z" fill="#01A999"/>
<path d="M24.2256 30.3588L24.2256 26.2254L24.8444 26.6677L24.8444 30.8011L24.2256 30.3588Z" fill="#0B5B54"/>
<path d="M30.6761 24.9441L26.4932 27.8662L28.1875 29.0738L32.3003 26.1025L30.6761 24.9441Z" fill="#148178"/>
<path d="M33.3399 26.8525L29.252 29.8357L30.9462 31.0432L35.005 28.0304L33.3399 26.8525Z" fill="#148178"/>
<path d="M27.9188 22.9724L23.7661 25.9251L25.4604 27.1326L29.5757 24.1478L27.9188 22.9724Z" fill="#148178"/>
<path d="M26.4922 31.9839L26.4922 27.8506L28.1896 29.0703L28.1896 33.2036L26.4922 31.9839Z" fill="#0B5B54"/>
<path d="M29.2515 33.9533L29.2515 29.8199L30.9488 31.0396L30.9488 35.173L29.2515 33.9533Z" fill="#0B5B54"/>
<path d="M23.7656 30.0427L23.7656 25.9093L25.463 27.129L25.463 31.2623L23.7656 30.0427Z" fill="#0B5B54"/>
<path d="M18.5693 33.7823L18.5693 29.6498L26.8343 35.5534L26.8343 39.6859L18.5693 33.7823Z" fill="#F04641"/>
<path d="M30.9673 32.6017L30.9673 36.7342L26.8348 39.686L26.8348 35.5535L30.9673 32.6017Z" fill="#CC3B37"/>
<path d="M18.5693 29.6498L22.7018 26.6981L30.9668 32.6016L26.8343 35.5534L18.5693 29.6498Z" fill="#F2625E"/>
<path d="M25.4793 28.6796L21.2964 31.6018L22.9907 32.8093L27.1035 29.8381L25.4793 28.6796Z" fill="#F04641"/>
<path d="M28.1441 30.588L24.0562 33.5712L25.7504 34.7788L29.8092 31.766L28.1441 30.588Z" fill="#F04641"/>
<path d="M22.7235 26.7077L18.5708 29.6603L20.2651 30.8679L24.3804 27.8831L22.7235 26.7077Z" fill="#F04641"/>
<path d="M21.2964 35.7194L21.2964 31.5861L22.9938 32.8057L22.9938 36.9391L21.2964 35.7194Z" fill="#CC3B37"/>
<path d="M24.0552 37.6888L24.0552 33.5555L25.7526 34.7752L25.7526 38.9085L24.0552 37.6888Z" fill="#CC3B37"/>
<path d="M18.5693 33.778L18.5693 29.6447L20.2667 30.8643L20.2667 34.9977L18.5693 33.778Z" fill="#CC3B37"/>
<path d="M20.3179 28.4075L20.3179 24.275L28.5829 30.1786L28.5829 34.3111L20.3179 28.4075Z" fill="#4D889D"/>
<path d="M32.7153 27.2268L32.7153 31.3593L28.5828 34.3111L28.5828 30.1786L32.7153 27.2268Z" fill="#235F74"/>
<path d="M20.3179 24.275L24.4504 21.3232L32.7153 27.2268L28.5829 30.1786L20.3179 24.275Z" fill="#73A1B2"/>
<path d="M27.2278 23.3027L23.0449 26.2248L24.7392 27.4324L28.852 24.4611L27.2278 23.3027Z" fill="#4D889D"/>
<path d="M29.8921 25.2111L25.8042 28.1943L27.4985 29.4018L31.5573 26.389L29.8921 25.2111Z" fill="#4D889D"/>
<path d="M24.4716 21.3307L20.3188 24.2833L22.0131 25.4909L26.1284 22.5061L24.4716 21.3307Z" fill="#4D889D"/>
<path d="M23.0444 30.3425L23.0444 26.2091L24.7418 27.4288L24.7418 31.5621L23.0444 30.3425Z" fill="#235F74"/>
<path d="M25.8032 32.3119L25.8032 28.1785L27.5006 29.3982L27.5006 33.5316L25.8032 32.3119Z" fill="#235F74"/>
<path d="M20.3179 28.4011L20.3179 24.2677L22.0153 25.4874L22.0153 29.6207L20.3179 28.4011Z" fill="#235F74"/>
<g style="mix-blend-mode:multiply" opacity="0.2">
<path d="M41.8396 14.1697C42.034 14.0219 42.3137 14.0754 42.4404 14.2843C44.1054 17.0291 44.4868 18.8748 43.4503 20.618C45.9577 19.7403 48.1594 20.3605 51.2264 22.4994C51.3362 22.576 51.3946 22.6925 51.4017 22.8116C51.4293 22.9621 51.3724 23.1258 51.2318 23.2241C47.376 25.9195 44.8373 26.6365 41.23 24.7491L41.4678 26.2551C42.8349 34.913 39.2916 43.6154 32.2656 48.856L30.1395 50.4419L30.1395 50.4424C29.9778 50.566 29.8134 50.6898 29.6449 50.8108L29.4113 50.9851C29.3261 51.0486 29.2384 51.1027 29.1488 51.1479C28.4011 51.6232 27.5534 52.0004 26.4884 52.0617C25.0902 52.1421 23.7644 51.7043 23.2102 51.4068C23.1058 51.3531 23.0035 51.2911 22.9039 51.2205L15.758 46.158C14.7942 45.4752 14.2409 44.3416 14.1758 43.1622C14.1659 42.9835 14.1562 42.8031 14.1486 42.6196C14.1324 42.3895 14.1144 42.0992 14.124 41.8542C14.0601 39.5483 14.1541 37.9746 14.4505 36.0434C14.454 36.0096 14.4586 35.9744 14.4641 35.9375C14.4759 35.8595 14.4891 35.7825 14.5036 35.7065L14.504 35.704C14.5108 35.6621 14.5193 35.6205 14.5294 35.5791C14.9516 33.6101 16.2887 32.3432 17.4367 31.4231C17.8073 31.1062 18.1853 30.8061 18.5703 30.5214L18.5703 29.6447L18.5739 29.6473L20.3181 28.4015L20.3181 24.2677L20.3232 24.2714L24.4506 21.3232L24.4659 21.3342L24.4707 21.3308L26.1272 22.5059L26.1169 22.5134L27.2245 23.3046L27.2273 23.3026L27.3404 23.3833L27.9184 22.9724L27.9224 22.9753L27.9265 22.9724L29.1094 23.8174L29.5749 24.1476L29.5733 24.1487L31.1708 25.2898C31.7654 25.136 32.3628 24.9848 32.962 24.833C35.0248 24.3107 37.1086 23.7831 39.1693 23.1307C39.3923 23.0601 39.6112 22.9782 39.8268 22.8836C39.8268 22.8773 39.8269 22.8711 39.8271 22.8648C37.7724 19.0327 38.1745 16.9561 41.8396 14.1697Z" fill="#235F74"/>
</g>
<g style="mix-blend-mode:plus-lighter">
<path d="M7.51953 17.8437V42.8121L32.488 60.6468V35.6783L7.51953 17.8437Z" fill="#00AA9B" fill-opacity="0.2"/>
</g>
<g style="mix-blend-mode:plus-darker">
<path d="M57.4565 17.8437V42.8121L32.4881 60.6468V35.6783L57.4565 17.8437Z" fill="#00AA9B" fill-opacity="0.1"/>
</g>
<g style="mix-blend-mode:plus-lighter">
<path d="M32.488 0.00909424L7.51953 17.8437L32.488 35.6783L57.4564 17.8437L32.488 0.00909424Z" fill="#232D4B" fill-opacity="0.3"/>
</g>
</svg>
